<svg id="Calque_1" data-name="Calque 1" xmlns="http://www.w3.org/2000/svg" viewBox="0 0 665.96 245.04"><defs><style>.cls-1{fill:#009fe3;}.cls-2{fill:#fff;}</style></defs><title>bouton_recommencer_haut</title><path class="cls-1" d="M601.74,215.22H64.36A64.22,64.22,0,0,1,.14,151V64.22A64.22,64.22,0,0,1,64.36,0H601.74A64.22,64.22,0,0,1,666,64.22V151a64.22,64.22,0,0,1-64.22,64.22"/><path class="cls-2" d="M48.49,170.31H30.33V50.76h29.4c12.21,0,18.16,5,18.16,18.48V90.45c0,10-4.66,14-7.87,15.26,4,1.77,7.87,4.82,7.87,13v41.94c0,5,1,7.07,1.77,8.84v.8h-18c-.8-1.29-1.77-3.37-1.77-9.8v-36c0-5.3-1-7.55-6.75-7.55H48.49Zm0-70.37h4.82c5,0,6.59-3.21,6.59-8.52V74.71c0-5.14-1-7.71-6.59-7.71H48.49Z"/><polygon class="cls-2" points="126.09 50.77 126.09 68.12 102.96 68.12 102.96 99.45 121.11 99.45 121.11 117.61 102.96 117.61 102.96 152.15 127.06 152.15 127.06 170.31 84.8 170.31 84.8 50.77 126.09 50.77"/><path class="cls-2" d="M161.28,118.25h17.83v27.64c0,12.85-4.34,25.87-21.69,25.87h-4c-18.48,0-22.33-13.18-22.33-25.23V73.58c0-12.21,5.3-23.94,21.69-23.94h4.18c19.92,0,22.17,13.18,22.17,24.9V95.91H161.28v-21c0-5.14-1.61-7.87-6.11-7.87s-5.62,2.57-5.62,7.87v71q0,8.19,5.78,8.2c4.34,0,5.95-3.05,5.95-8Z"/><path class="cls-2" d="M234.71,143.63c0,16.71-5.62,28.12-23.14,28.12h-3.05c-17.35,0-23.46-11.41-23.46-28.12V77.12c0-16.71,6.11-27.47,23.3-27.47h3.05c17.67,0,23.3,10.93,23.3,27.31ZM216.23,76.15Q216.23,67,210,67c-4.66,0-6.43,2.89-6.43,9.16v68.77c0,5.14,1.45,9.16,6.59,9.16,5,0,6.11-4,6.11-9.16Z"/><polygon class="cls-2" points="241.62 50.77 264.92 50.77 273.59 113.91 282.43 50.77 304.12 50.77 304.12 170.31 287.09 170.31 287.09 93.02 276.16 170.31 268.93 170.31 257.85 93.02 257.85 170.31 241.62 170.31 241.62 50.77"/><polygon class="cls-2" points="311.51 50.77 334.81 50.77 343.48 113.91 352.32 50.77 374.01 50.77 374.01 170.31 356.98 170.31 356.98 93.02 346.06 170.31 338.82 170.31 327.74 93.02 327.74 170.31 311.51 170.31 311.51 50.77"/><polygon class="cls-2" points="422.7 50.77 422.7 68.12 399.56 68.12 399.56 99.45 417.72 99.45 417.72 117.61 399.56 117.61 399.56 152.15 423.66 152.15 423.66 170.31 381.4 170.31 381.4 50.77 422.7 50.77"/><polygon class="cls-2" points="445.35 50.77 460.93 114.87 460.93 50.77 477.48 50.77 477.48 170.31 462.7 170.31 445.35 101.54 445.35 170.31 428.96 170.31 428.96 50.77 445.35 50.77"/><path class="cls-2" d="M514.6,118.25h17.83v27.64c0,12.85-4.34,25.87-21.69,25.87h-4c-18.48,0-22.33-13.18-22.33-25.23V73.58c0-12.21,5.3-23.94,21.69-23.94h4.18c19.92,0,22.17,13.18,22.17,24.9V95.91H514.6v-21c0-5.14-1.61-7.87-6.11-7.87s-5.62,2.57-5.62,7.87v71q0,8.19,5.78,8.2c4.34,0,5.95-3.05,5.95-8Z"/><polygon class="cls-2" points="580.15 50.77 580.15 68.12 557.01 68.12 557.01 99.45 575.17 99.45 575.17 117.61 557.01 117.61 557.01 152.15 581.12 152.15 581.12 170.31 538.86 170.31 538.86 50.77 580.15 50.77"/><path class="cls-2" d="M604.57,170.31H586.42V50.76h29.4c12.21,0,18.15,5,18.15,18.48V90.45c0,10-4.66,14-7.87,15.26,4,1.77,7.87,4.82,7.87,13v41.94c0,5,1,7.07,1.77,8.84v.8h-18c-.8-1.29-1.77-3.37-1.77-9.8v-36c0-5.3-1-7.55-6.75-7.55h-4.66Zm0-70.37h4.82c5,0,6.59-3.21,6.59-8.52V74.71c0-5.14-1-7.71-6.59-7.71h-4.82Z"/></svg>